M48
; DRILL file {KiCad (7.0.0)} date Wed Sep 27 18:47:49 2023
; FORMAT={-:-/ absolute / metric / decimal}
; #@! TF.CreationDate,2023-09-27T18:47:49+02:00
; #@! TF.GenerationSoftware,Kicad,Pcbnew,(7.0.0)
; #@! TF.FileFunction,Plated,1,2,PTH
FMAT,2
METRIC
; #@! TA.AperFunction,Plated,PTH,ComponentDrill
T1C0.550
; #@! TA.AperFunction,Plated,PTH,ComponentDrill
T2C0.850
; #@! TA.AperFunction,Plated,PTH,ComponentDrill
T3C0.900
%
G90
G05
T3
X51.1Y-66.345
X51.125Y-42.342
X51.125Y-54.28
X51.125Y-72.314
X51.146Y-48.285
X51.151Y-60.3
X53.64Y-66.345
X53.665Y-42.342
X53.665Y-54.28
X53.665Y-72.314
X53.686Y-48.285
X53.691Y-60.3
X59.157Y-72.339
X59.258Y-54.102
X59.258Y-60.223
X59.258Y-66.269
X59.279Y-41.935
X59.309Y-48.057
X61.697Y-72.339
X61.798Y-54.102
X61.798Y-60.223
X61.798Y-66.269
X61.819Y-41.935
X61.849Y-48.057
X65.176Y-41.783
X65.176Y-44.323
X65.176Y-46.863
X65.176Y-49.403
X65.176Y-51.943
X65.176Y-54.483
X65.176Y-57.023
X65.176Y-59.563
X88.036Y-41.783
X88.036Y-44.323
X88.036Y-46.863
X88.036Y-49.403
X88.036Y-51.943
X88.036Y-54.483
X88.036Y-57.023
X88.036Y-59.563
X94.102Y-41.554
X94.127Y-47.6
X94.158Y-53.645
X94.178Y-65.811
X94.178Y-71.831
X94.183Y-59.715
X96.642Y-41.554
X96.667Y-47.6
X96.698Y-53.645
X96.718Y-65.811
X96.718Y-71.831
X96.723Y-59.715
X101.956Y-41.707
X101.981Y-72.06
X102.006Y-65.659
X102.083Y-47.727
X102.184Y-59.715
X102.205Y-53.797
X104.496Y-41.707
X104.521Y-72.06
X104.546Y-65.659
X104.623Y-47.727
X104.724Y-59.715
X104.745Y-53.797
T1
G00X72.717Y-73.919
M15
G01X72.717Y-74.569
M16
G05
G00X80.467Y-73.919
M15
G01X80.467Y-74.569
M16
G05
T2
G00X72.867Y-70.169
M15
G01X72.867Y-70.719
M16
G05
G00X80.317Y-70.169
M15
G01X80.317Y-70.719
M16
G05
T0
M30
