%TF.GenerationSoftware,KiCad,Pcbnew,(7.0.0)*%
%TF.CreationDate,2023-09-27T18:47:42+02:00*%
%TF.ProjectId,ESP32Cam IR LED,45535033-3243-4616-9d20-4952204c4544,rev?*%
%TF.SameCoordinates,Original*%
%TF.FileFunction,Soldermask,Top*%
%TF.FilePolarity,Negative*%
%FSLAX46Y46*%
G04 Gerber Fmt 4.6, Leading zero omitted, Abs format (unit mm)*
G04 Created by KiCad (PCBNEW (7.0.0)) date 2023-09-27 18:47:42*
%MOMM*%
%LPD*%
G01*
G04 APERTURE LIST*
G04 Aperture macros list*
%AMRoundRect*
0 Rectangle with rounded corners*
0 $1 Rounding radius*
0 $2 $3 $4 $5 $6 $7 $8 $9 X,Y pos of 4 corners*
0 Add a 4 corners polygon primitive as box body*
4,1,4,$2,$3,$4,$5,$6,$7,$8,$9,$2,$3,0*
0 Add four circle primitives for the rounded corners*
1,1,$1+$1,$2,$3*
1,1,$1+$1,$4,$5*
1,1,$1+$1,$6,$7*
1,1,$1+$1,$8,$9*
0 Add four rect primitives between the rounded corners*
20,1,$1+$1,$2,$3,$4,$5,0*
20,1,$1+$1,$4,$5,$6,$7,0*
20,1,$1+$1,$6,$7,$8,$9,0*
20,1,$1+$1,$8,$9,$2,$3,0*%
G04 Aperture macros list end*
%ADD10RoundRect,0.200000X0.275000X-0.200000X0.275000X0.200000X-0.275000X0.200000X-0.275000X-0.200000X0*%
%ADD11R,1.800000X1.800000*%
%ADD12C,1.800000*%
%ADD13O,0.800000X0.800000*%
%ADD14R,0.450000X1.300000*%
%ADD15O,1.150000X1.800000*%
%ADD16O,1.450000X2.000000*%
%ADD17C,1.665000*%
%ADD18R,1.665000X1.665000*%
%ADD19C,2.000000*%
G04 APERTURE END LIST*
D10*
%TO.C,R14*%
X92176600Y-48386000D03*
X92176600Y-46736000D03*
%TD*%
%TO.C,R3*%
X49144000Y-55117000D03*
X49144000Y-53467000D03*
%TD*%
%TO.C,R19*%
X100050600Y-42544000D03*
X100050600Y-40894000D03*
%TD*%
%TO.C,R17*%
X92176600Y-66661800D03*
X92176600Y-65011800D03*
%TD*%
D11*
%TO.C,D4*%
X51150599Y-60299599D03*
D12*
X53690600Y-60299600D03*
%TD*%
D13*
%TO.C,J1*%
X74092199Y-71494199D03*
X79092199Y-71494199D03*
D14*
X75292199Y-70394199D03*
X75942199Y-70394199D03*
X76592199Y-70394199D03*
X77242199Y-70394199D03*
X77892199Y-70394199D03*
D15*
X72717199Y-74244199D03*
D16*
X72867199Y-70444199D03*
X80317199Y-70444199D03*
D15*
X80467199Y-74244199D03*
%TD*%
D11*
%TO.C,D9*%
X59258199Y-54101999D03*
D12*
X61798200Y-54102000D03*
%TD*%
D11*
%TO.C,D15*%
X94157799Y-53644799D03*
D12*
X96697800Y-53644800D03*
%TD*%
D10*
%TO.C,R11*%
X57277000Y-67183000D03*
X57277000Y-65533000D03*
%TD*%
D11*
%TO.C,D5*%
X51099799Y-66344799D03*
D12*
X53639800Y-66344800D03*
%TD*%
D11*
%TO.C,D8*%
X59308999Y-48056799D03*
D12*
X61849000Y-48056800D03*
%TD*%
D11*
%TO.C,D12*%
X59156599Y-72339199D03*
D12*
X61696600Y-72339200D03*
%TD*%
D11*
%TO.C,D2*%
X51145599Y-48285399D03*
D12*
X53685600Y-48285400D03*
%TD*%
D10*
%TO.C,R12*%
X57048400Y-73101200D03*
X57048400Y-71451200D03*
%TD*%
%TO.C,R23*%
X100025200Y-66597800D03*
X100025200Y-64947800D03*
%TD*%
D11*
%TO.C,D3*%
X51125199Y-54279799D03*
D12*
X53665200Y-54279800D03*
%TD*%
D10*
%TO.C,R6*%
X49144000Y-73100200D03*
X49144000Y-71450200D03*
%TD*%
D11*
%TO.C,D20*%
X102082599Y-47726599D03*
D12*
X104622600Y-47726600D03*
%TD*%
D17*
%TO.C,U1*%
X65176400Y-59563000D03*
X65176400Y-57023000D03*
X65176400Y-54483000D03*
X65176400Y-51943000D03*
X65176400Y-49403000D03*
X65176400Y-46863000D03*
X65176400Y-44323000D03*
D18*
X65176399Y-41782999D03*
X88036399Y-41782999D03*
D17*
X88036400Y-44323000D03*
X88036400Y-46863000D03*
X88036400Y-49403000D03*
X88036400Y-51943000D03*
X88036400Y-54483000D03*
X88036400Y-57023000D03*
X88036400Y-59563000D03*
%TD*%
D11*
%TO.C,D11*%
X59258199Y-66268599D03*
D12*
X61798200Y-66268600D03*
%TD*%
D11*
%TO.C,D22*%
X102184199Y-59715399D03*
D12*
X104724200Y-59715400D03*
%TD*%
D11*
%TO.C,D18*%
X94178199Y-71831199D03*
D12*
X96718200Y-71831200D03*
%TD*%
D11*
%TO.C,D21*%
X102204599Y-53797199D03*
D12*
X104744600Y-53797200D03*
%TD*%
D10*
%TO.C,R13*%
X92151200Y-42518600D03*
X92151200Y-40868600D03*
%TD*%
%TO.C,R21*%
X100203000Y-54736000D03*
X100203000Y-53086000D03*
%TD*%
D11*
%TO.C,D14*%
X94127399Y-47599599D03*
D12*
X96667400Y-47599600D03*
%TD*%
D10*
%TO.C,R2*%
X49194800Y-49047400D03*
X49194800Y-47397400D03*
%TD*%
%TO.C,R16*%
X92202000Y-60603400D03*
X92202000Y-58953400D03*
%TD*%
%TO.C,R15*%
X92151200Y-54456600D03*
X92151200Y-52806600D03*
%TD*%
D11*
%TO.C,D6*%
X51125199Y-72313799D03*
D12*
X53665200Y-72313800D03*
%TD*%
D11*
%TO.C,D24*%
X101980999Y-72059799D03*
D12*
X104521000Y-72059800D03*
%TD*%
D10*
%TO.C,R7*%
X57327800Y-42697400D03*
X57327800Y-41047400D03*
%TD*%
%TO.C,R10*%
X57327800Y-61136800D03*
X57327800Y-59486800D03*
%TD*%
D11*
%TO.C,D10*%
X59258199Y-60223399D03*
D12*
X61798200Y-60223400D03*
%TD*%
D11*
%TO.C,D7*%
X59278599Y-41935399D03*
D12*
X61818600Y-41935400D03*
%TD*%
D10*
%TO.C,R5*%
X49118600Y-67131200D03*
X49118600Y-65481200D03*
%TD*%
%TO.C,R8*%
X57302400Y-48894000D03*
X57302400Y-47244000D03*
%TD*%
D11*
%TO.C,D16*%
X94183199Y-59715399D03*
D12*
X96723200Y-59715400D03*
%TD*%
D11*
%TO.C,D19*%
X101955599Y-41706799D03*
D12*
X104495600Y-41706800D03*
%TD*%
D10*
%TO.C,R4*%
X49144000Y-61162200D03*
X49144000Y-59512200D03*
%TD*%
D11*
%TO.C,D17*%
X94178199Y-65811399D03*
D12*
X96718200Y-65811400D03*
%TD*%
D11*
%TO.C,D13*%
X94101999Y-41554399D03*
D12*
X96642000Y-41554400D03*
%TD*%
D19*
%TO.C,TP1*%
X69875400Y-75412600D03*
%TD*%
D11*
%TO.C,D23*%
X102006399Y-65658999D03*
D12*
X104546400Y-65659000D03*
%TD*%
D10*
%TO.C,R9*%
X57277000Y-54939200D03*
X57277000Y-53289200D03*
%TD*%
%TO.C,R1*%
X49194800Y-43243000D03*
X49194800Y-41593000D03*
%TD*%
%TO.C,R24*%
X100050600Y-72973200D03*
X100050600Y-71323200D03*
%TD*%
%TO.C,R18*%
X92202000Y-72580000D03*
X92202000Y-70930000D03*
%TD*%
%TO.C,R20*%
X100126800Y-48589200D03*
X100126800Y-46939200D03*
%TD*%
D19*
%TO.C,TP2*%
X83261200Y-75387200D03*
%TD*%
D10*
%TO.C,R22*%
X100228400Y-60578000D03*
X100228400Y-58928000D03*
%TD*%
D11*
%TO.C,D1*%
X51125199Y-42341799D03*
D12*
X53665200Y-42341800D03*
%TD*%
M02*
