%TF.GenerationSoftware,KiCad,Pcbnew,(7.0.0)*%
%TF.CreationDate,2023-09-27T18:47:42+02:00*%
%TF.ProjectId,ESP32Cam IR LED,45535033-3243-4616-9d20-4952204c4544,rev?*%
%TF.SameCoordinates,Original*%
%TF.FileFunction,Paste,Top*%
%TF.FilePolarity,Positive*%
%FSLAX46Y46*%
G04 Gerber Fmt 4.6, Leading zero omitted, Abs format (unit mm)*
G04 Created by KiCad (PCBNEW (7.0.0)) date 2023-09-27 18:47:42*
%MOMM*%
%LPD*%
G01*
G04 APERTURE LIST*
G04 Aperture macros list*
%AMRoundRect*
0 Rectangle with rounded corners*
0 $1 Rounding radius*
0 $2 $3 $4 $5 $6 $7 $8 $9 X,Y pos of 4 corners*
0 Add a 4 corners polygon primitive as box body*
4,1,4,$2,$3,$4,$5,$6,$7,$8,$9,$2,$3,0*
0 Add four circle primitives for the rounded corners*
1,1,$1+$1,$2,$3*
1,1,$1+$1,$4,$5*
1,1,$1+$1,$6,$7*
1,1,$1+$1,$8,$9*
0 Add four rect primitives between the rounded corners*
20,1,$1+$1,$2,$3,$4,$5,0*
20,1,$1+$1,$4,$5,$6,$7,0*
20,1,$1+$1,$6,$7,$8,$9,0*
20,1,$1+$1,$8,$9,$2,$3,0*%
G04 Aperture macros list end*
%ADD10RoundRect,0.200000X0.275000X-0.200000X0.275000X0.200000X-0.275000X0.200000X-0.275000X-0.200000X0*%
%ADD11R,0.450000X1.300000*%
G04 APERTURE END LIST*
D10*
%TO.C,R14*%
X92176600Y-48386000D03*
X92176600Y-46736000D03*
%TD*%
%TO.C,R3*%
X49144000Y-55117000D03*
X49144000Y-53467000D03*
%TD*%
%TO.C,R19*%
X100050600Y-42544000D03*
X100050600Y-40894000D03*
%TD*%
%TO.C,R17*%
X92176600Y-66661800D03*
X92176600Y-65011800D03*
%TD*%
D11*
%TO.C,J1*%
X75292199Y-70394199D03*
X75942199Y-70394199D03*
X76592199Y-70394199D03*
X77242199Y-70394199D03*
X77892199Y-70394199D03*
%TD*%
D10*
%TO.C,R11*%
X57277000Y-67183000D03*
X57277000Y-65533000D03*
%TD*%
%TO.C,R12*%
X57048400Y-73101200D03*
X57048400Y-71451200D03*
%TD*%
%TO.C,R23*%
X100025200Y-66597800D03*
X100025200Y-64947800D03*
%TD*%
%TO.C,R6*%
X49144000Y-73100200D03*
X49144000Y-71450200D03*
%TD*%
%TO.C,R13*%
X92151200Y-42518600D03*
X92151200Y-40868600D03*
%TD*%
%TO.C,R21*%
X100203000Y-54736000D03*
X100203000Y-53086000D03*
%TD*%
%TO.C,R2*%
X49194800Y-49047400D03*
X49194800Y-47397400D03*
%TD*%
%TO.C,R16*%
X92202000Y-60603400D03*
X92202000Y-58953400D03*
%TD*%
%TO.C,R15*%
X92151200Y-54456600D03*
X92151200Y-52806600D03*
%TD*%
%TO.C,R7*%
X57327800Y-42697400D03*
X57327800Y-41047400D03*
%TD*%
%TO.C,R10*%
X57327800Y-61136800D03*
X57327800Y-59486800D03*
%TD*%
%TO.C,R5*%
X49118600Y-67131200D03*
X49118600Y-65481200D03*
%TD*%
%TO.C,R8*%
X57302400Y-48894000D03*
X57302400Y-47244000D03*
%TD*%
%TO.C,R4*%
X49144000Y-61162200D03*
X49144000Y-59512200D03*
%TD*%
%TO.C,R9*%
X57277000Y-54939200D03*
X57277000Y-53289200D03*
%TD*%
%TO.C,R1*%
X49194800Y-43243000D03*
X49194800Y-41593000D03*
%TD*%
%TO.C,R24*%
X100050600Y-72973200D03*
X100050600Y-71323200D03*
%TD*%
%TO.C,R18*%
X92202000Y-72580000D03*
X92202000Y-70930000D03*
%TD*%
%TO.C,R20*%
X100126800Y-48589200D03*
X100126800Y-46939200D03*
%TD*%
%TO.C,R22*%
X100228400Y-60578000D03*
X100228400Y-58928000D03*
%TD*%
M02*
