%TF.GenerationSoftware,KiCad,Pcbnew,(7.0.0)*%
%TF.CreationDate,2023-09-27T18:47:42+02:00*%
%TF.ProjectId,ESP32Cam IR LED,45535033-3243-4616-9d20-4952204c4544,rev?*%
%TF.SameCoordinates,Original*%
%TF.FileFunction,Copper,L2,Bot*%
%TF.FilePolarity,Positive*%
%FSLAX46Y46*%
G04 Gerber Fmt 4.6, Leading zero omitted, Abs format (unit mm)*
G04 Created by KiCad (PCBNEW (7.0.0)) date 2023-09-27 18:47:42*
%MOMM*%
%LPD*%
G01*
G04 APERTURE LIST*
%TA.AperFunction,ComponentPad*%
%ADD10R,1.800000X1.800000*%
%TD*%
%TA.AperFunction,ComponentPad*%
%ADD11C,1.800000*%
%TD*%
%TA.AperFunction,ComponentPad*%
%ADD12O,1.150000X1.800000*%
%TD*%
%TA.AperFunction,ComponentPad*%
%ADD13O,1.450000X2.000000*%
%TD*%
%TA.AperFunction,ComponentPad*%
%ADD14C,1.665000*%
%TD*%
%TA.AperFunction,ComponentPad*%
%ADD15R,1.665000X1.665000*%
%TD*%
G04 APERTURE END LIST*
D10*
%TO.P,D4,1,K*%
%TO.N,Net-(D4-K)*%
X51150599Y-60299599D03*
D11*
%TO.P,D4,2,A*%
%TO.N,Net-(D1-A)*%
X53690600Y-60299600D03*
%TD*%
D12*
%TO.P,J1,6,Shield*%
%TO.N,unconnected-(J1-Shield-Pad6)*%
X72717199Y-74244199D03*
D13*
X72867199Y-70444199D03*
X80317199Y-70444199D03*
D12*
X80467199Y-74244199D03*
%TD*%
D10*
%TO.P,D9,1,K*%
%TO.N,Net-(D9-K)*%
X59258199Y-54101999D03*
D11*
%TO.P,D9,2,A*%
%TO.N,Net-(D1-A)*%
X61798200Y-54102000D03*
%TD*%
D10*
%TO.P,D15,1,K*%
%TO.N,Net-(D15-K)*%
X94157799Y-53644799D03*
D11*
%TO.P,D15,2,A*%
%TO.N,Net-(D1-A)*%
X96697800Y-53644800D03*
%TD*%
D10*
%TO.P,D5,1,K*%
%TO.N,Net-(D5-K)*%
X51099799Y-66344799D03*
D11*
%TO.P,D5,2,A*%
%TO.N,Net-(D1-A)*%
X53639800Y-66344800D03*
%TD*%
D10*
%TO.P,D8,1,K*%
%TO.N,Net-(D8-K)*%
X59308999Y-48056799D03*
D11*
%TO.P,D8,2,A*%
%TO.N,Net-(D1-A)*%
X61849000Y-48056800D03*
%TD*%
D10*
%TO.P,D12,1,K*%
%TO.N,Net-(D12-K)*%
X59156599Y-72339199D03*
D11*
%TO.P,D12,2,A*%
%TO.N,Net-(D1-A)*%
X61696600Y-72339200D03*
%TD*%
D10*
%TO.P,D2,1,K*%
%TO.N,Net-(D2-K)*%
X51145599Y-48285399D03*
D11*
%TO.P,D2,2,A*%
%TO.N,Net-(D1-A)*%
X53685600Y-48285400D03*
%TD*%
D10*
%TO.P,D3,1,K*%
%TO.N,Net-(D3-K)*%
X51125199Y-54279799D03*
D11*
%TO.P,D3,2,A*%
%TO.N,Net-(D1-A)*%
X53665200Y-54279800D03*
%TD*%
D10*
%TO.P,D20,1,K*%
%TO.N,Net-(D20-K)*%
X102082599Y-47726599D03*
D11*
%TO.P,D20,2,A*%
%TO.N,Net-(D1-A)*%
X104622600Y-47726600D03*
%TD*%
D14*
%TO.P,U1,1,IO4*%
%TO.N,unconnected-(U1-IO4-Pad1)*%
X65176400Y-59563000D03*
%TO.P,U1,2,IO2*%
%TO.N,unconnected-(U1-IO2-Pad2)*%
X65176400Y-57023000D03*
%TO.P,U1,3,IO14*%
%TO.N,unconnected-(U1-IO14-Pad3)*%
X65176400Y-54483000D03*
%TO.P,U1,4,IO15*%
%TO.N,unconnected-(U1-IO15-Pad4)*%
X65176400Y-51943000D03*
%TO.P,U1,5,IO13*%
%TO.N,unconnected-(U1-IO13-Pad5)*%
X65176400Y-49403000D03*
%TO.P,U1,6,IO12*%
%TO.N,unconnected-(U1-IO12-Pad6)*%
X65176400Y-46863000D03*
%TO.P,U1,7,GND_1*%
%TO.N,GND*%
X65176400Y-44323000D03*
D15*
%TO.P,U1,8,5V*%
%TO.N,Net-(D1-A)*%
X65176399Y-41782999D03*
%TO.P,U1,9,3V3*%
%TO.N,unconnected-(U1-3V3-Pad9)*%
X88036399Y-41782999D03*
D14*
%TO.P,U1,10,IO16*%
%TO.N,unconnected-(U1-IO16-Pad10)*%
X88036400Y-44323000D03*
%TO.P,U1,11,IO0*%
%TO.N,unconnected-(U1-IO0-Pad11)*%
X88036400Y-46863000D03*
%TO.P,U1,12,GND_2*%
%TO.N,GND*%
X88036400Y-49403000D03*
%TO.P,U1,13,VCC*%
%TO.N,unconnected-(U1-VCC-Pad13)*%
X88036400Y-51943000D03*
%TO.P,U1,14,U0R*%
%TO.N,unconnected-(U1-U0R-Pad14)*%
X88036400Y-54483000D03*
%TO.P,U1,15,U0T*%
%TO.N,unconnected-(U1-U0T-Pad15)*%
X88036400Y-57023000D03*
%TO.P,U1,16,GND_3*%
%TO.N,unconnected-(U1-GND_3-Pad16)*%
X88036400Y-59563000D03*
%TD*%
D10*
%TO.P,D11,1,K*%
%TO.N,Net-(D11-K)*%
X59258199Y-66268599D03*
D11*
%TO.P,D11,2,A*%
%TO.N,Net-(D1-A)*%
X61798200Y-66268600D03*
%TD*%
D10*
%TO.P,D22,1,K*%
%TO.N,Net-(D22-K)*%
X102184199Y-59715399D03*
D11*
%TO.P,D22,2,A*%
%TO.N,Net-(D1-A)*%
X104724200Y-59715400D03*
%TD*%
D10*
%TO.P,D18,1,K*%
%TO.N,Net-(D18-K)*%
X94178199Y-71831199D03*
D11*
%TO.P,D18,2,A*%
%TO.N,Net-(D1-A)*%
X96718200Y-71831200D03*
%TD*%
D10*
%TO.P,D21,1,K*%
%TO.N,Net-(D21-K)*%
X102204599Y-53797199D03*
D11*
%TO.P,D21,2,A*%
%TO.N,Net-(D1-A)*%
X104744600Y-53797200D03*
%TD*%
D10*
%TO.P,D14,1,K*%
%TO.N,Net-(D14-K)*%
X94127399Y-47599599D03*
D11*
%TO.P,D14,2,A*%
%TO.N,Net-(D1-A)*%
X96667400Y-47599600D03*
%TD*%
D10*
%TO.P,D6,1,K*%
%TO.N,Net-(D6-K)*%
X51125199Y-72313799D03*
D11*
%TO.P,D6,2,A*%
%TO.N,Net-(D1-A)*%
X53665200Y-72313800D03*
%TD*%
D10*
%TO.P,D24,1,K*%
%TO.N,Net-(D24-K)*%
X101980999Y-72059799D03*
D11*
%TO.P,D24,2,A*%
%TO.N,Net-(D1-A)*%
X104521000Y-72059800D03*
%TD*%
D10*
%TO.P,D10,1,K*%
%TO.N,Net-(D10-K)*%
X59258199Y-60223399D03*
D11*
%TO.P,D10,2,A*%
%TO.N,Net-(D1-A)*%
X61798200Y-60223400D03*
%TD*%
D10*
%TO.P,D7,1,K*%
%TO.N,Net-(D7-K)*%
X59278599Y-41935399D03*
D11*
%TO.P,D7,2,A*%
%TO.N,Net-(D1-A)*%
X61818600Y-41935400D03*
%TD*%
D10*
%TO.P,D16,1,K*%
%TO.N,Net-(D16-K)*%
X94183199Y-59715399D03*
D11*
%TO.P,D16,2,A*%
%TO.N,Net-(D1-A)*%
X96723200Y-59715400D03*
%TD*%
D10*
%TO.P,D19,1,K*%
%TO.N,Net-(D19-K)*%
X101955599Y-41706799D03*
D11*
%TO.P,D19,2,A*%
%TO.N,Net-(D1-A)*%
X104495600Y-41706800D03*
%TD*%
D10*
%TO.P,D17,1,K*%
%TO.N,Net-(D17-K)*%
X94178199Y-65811399D03*
D11*
%TO.P,D17,2,A*%
%TO.N,Net-(D1-A)*%
X96718200Y-65811400D03*
%TD*%
D10*
%TO.P,D13,1,K*%
%TO.N,Net-(D13-K)*%
X94101999Y-41554399D03*
D11*
%TO.P,D13,2,A*%
%TO.N,Net-(D1-A)*%
X96642000Y-41554400D03*
%TD*%
D10*
%TO.P,D23,1,K*%
%TO.N,Net-(D23-K)*%
X102006399Y-65658999D03*
D11*
%TO.P,D23,2,A*%
%TO.N,Net-(D1-A)*%
X104546400Y-65659000D03*
%TD*%
D10*
%TO.P,D1,1,K*%
%TO.N,Net-(D1-K)*%
X51125199Y-42341799D03*
D11*
%TO.P,D1,2,A*%
%TO.N,Net-(D1-A)*%
X53665200Y-42341800D03*
%TD*%
M02*
